<?xml version="1.0"?>
<svg xmlns="http://www.w3.org/2000/svg" xmlns:xlink="http://www.w3.org/1999/xlink" version="1.1" id="Capa_1" x="0px" y="0px" viewBox="0 0 512 512" style="enable-background:new 0 0 512 512;" xml:space="preserve" width="512px" height="512px" class=""><g transform="matrix(0.689449 0 0 0.689449 79.501 79.501)"><polygon style="fill:#828282;" points="482,0 387,256 482,512 512,512 512,0 " data-original="#828282"/><polygon style="fill:#D2D2D2;" points="452,0 357,256 452,512 482,512 482,0 " data-original="#D2D2D2"/><polygon style="fill:#46D845" points="392,0 256,512 452,512 452,0 " data-original="#FBF24A" class="active-path" data-old_color="#02FF00"/><polygon style="fill:#D2D2D2;" points="211,0 161,256 211,512 271,512 422,361 422,0 " data-original="#D2D2D2"/><rect style="fill:#E4E4E4;" width="211" height="512" data-original="#E4E4E4"/><polygon style="fill:#434343;" points="292.5,421 211,421 191,436 211,451 292.5,451 " data-original="#434343"/><rect x="79.5" y="421" style="fill:#828282;" width="131.5" height="30" data-original="#828282"/><polygon style="fill:#434343;" points="271,361 211,361 191,376 211,391 292.5,391 " data-original="#434343"/><rect x="79.5" y="361" style="fill:#828282;" width="131.5" height="30" data-original="#828282"/><polygon style="fill:#434343;" points="342.5,301 211,301 191,316 211,331 342.5,331 " data-original="#434343"/><rect x="79.5" y="301" style="fill:#828282;" width="131.5" height="30" data-original="#828282"/><polygon style="fill:#636363;" points="309.433,126.49 294.433,100.51 226,140.019 196,191.981 196,271 226,271 226,191.981   294.433,231.49 309.433,205.51 241,166 " data-original="#636363"/><polygon style="fill:#828282;" points="226,140.019 226,61 196,61 196,140.019 127.567,100.51 112.567,126.49 181,166   112.567,205.51 127.567,231.49 196,191.981 " data-original="#828282"/><path style="fill:#636363;" d="M211,91l-40,75l40,75c41.421,0,75-33.579,75-75C286,124.578,252.421,91,211,91z" data-original="#636363"/><path style="fill:#828282;" d="M136,166c0,41.421,33.579,75,75,75V91C169.579,91,136,124.578,136,166z" data-original="#828282"/><path style="fill:#242424;" d="M211,121l-24,45l24,45c24.853,0,45-20.147,45-45S235.853,121,211,121z" data-original="#242424"/><path style="fill:#636363;" d="M166,166c0,24.853,20.147,45,45,45v-90C186.147,121,166,141.147,166,166z" data-original="#636363"/><circle style="fill:#E4E4E4;" cx="211" cy="166" r="15" data-original="#E4E4E4"/><polygon style="fill:#FFFFFF" points="271,361 271,512 422,361 " data-original="#FFFFFF" class=""/></g> </svg>
